<mxfile host="Electron" agent="Mozilla/5.0 (Windows NT 10.0; Win64; x64) AppleWebKit/537.36 (KHTML, like Gecko) draw.io/24.7.17 Chrome/128.0.6613.36 Electron/32.0.1 Safari/537.36" version="24.7.17">
  <diagram name="Page-1" id="9CVXWt7-_POLyjd0vd9-">
    <mxGraphModel dx="2118" dy="820" grid="1" gridSize="10" guides="1" tooltips="1" connect="1" arrows="1" fold="1" page="1" pageScale="1" pageWidth="700" pageHeight="1000" math="0" shadow="0">
      <root>
        <mxCell id="0" />
        <mxCell id="1" parent="0" />
        <mxCell id="Ip4lQaihKb_Grlaf9IZl-10" style="rounded=0;orthogonalLoop=1;jettySize=auto;html=1;endArrow=none;endFill=0;" edge="1" parent="1" source="1G_YC3TLskXvWS0_9UK7-1" target="1G_YC3TLskXvWS0_9UK7-17">
          <mxGeometry relative="1" as="geometry" />
        </mxCell>
        <mxCell id="Ip4lQaihKb_Grlaf9IZl-11" style="rounded=0;orthogonalLoop=1;jettySize=auto;html=1;endArrow=none;endFill=0;" edge="1" parent="1" source="1G_YC3TLskXvWS0_9UK7-1" target="1G_YC3TLskXvWS0_9UK7-16">
          <mxGeometry relative="1" as="geometry" />
        </mxCell>
        <mxCell id="Ip4lQaihKb_Grlaf9IZl-12" style="rounded=0;orthogonalLoop=1;jettySize=auto;html=1;endArrow=none;endFill=0;" edge="1" parent="1" source="1G_YC3TLskXvWS0_9UK7-1" target="Ip4lQaihKb_Grlaf9IZl-1">
          <mxGeometry relative="1" as="geometry" />
        </mxCell>
        <mxCell id="Ip4lQaihKb_Grlaf9IZl-13" style="rounded=0;orthogonalLoop=1;jettySize=auto;html=1;entryX=0;entryY=0.5;entryDx=0;entryDy=0;endArrow=none;endFill=0;" edge="1" parent="1" source="1G_YC3TLskXvWS0_9UK7-1" target="Ip4lQaihKb_Grlaf9IZl-2">
          <mxGeometry relative="1" as="geometry" />
        </mxCell>
        <mxCell id="1G_YC3TLskXvWS0_9UK7-1" value="Admiistrateur" style="shape=umlActor;verticalLabelPosition=bottom;verticalAlign=top;html=1;outlineConnect=0;" parent="1" vertex="1">
          <mxGeometry x="-270" y="110" width="30" height="60" as="geometry" />
        </mxCell>
        <mxCell id="Ip4lQaihKb_Grlaf9IZl-28" style="rounded=0;orthogonalLoop=1;jettySize=auto;html=1;entryX=1;entryY=1;entryDx=0;entryDy=0;endArrow=none;endFill=0;" edge="1" parent="1" source="1G_YC3TLskXvWS0_9UK7-2" target="Ip4lQaihKb_Grlaf9IZl-26">
          <mxGeometry relative="1" as="geometry" />
        </mxCell>
        <mxCell id="Ip4lQaihKb_Grlaf9IZl-36" style="rounded=0;orthogonalLoop=1;jettySize=auto;html=1;endArrow=none;endFill=0;" edge="1" parent="1" source="1G_YC3TLskXvWS0_9UK7-2" target="Ip4lQaihKb_Grlaf9IZl-27">
          <mxGeometry relative="1" as="geometry" />
        </mxCell>
        <mxCell id="Ip4lQaihKb_Grlaf9IZl-41" style="rounded=0;orthogonalLoop=1;jettySize=auto;html=1;endArrow=none;endFill=0;" edge="1" parent="1" source="1G_YC3TLskXvWS0_9UK7-2" target="Ip4lQaihKb_Grlaf9IZl-37">
          <mxGeometry relative="1" as="geometry" />
        </mxCell>
        <mxCell id="1G_YC3TLskXvWS0_9UK7-2" value="Visiteur" style="shape=umlActor;verticalLabelPosition=bottom;verticalAlign=top;html=1;outlineConnect=0;" parent="1" vertex="1">
          <mxGeometry x="880" y="228" width="30" height="60" as="geometry" />
        </mxCell>
        <mxCell id="Ip4lQaihKb_Grlaf9IZl-50" style="rounded=0;orthogonalLoop=1;jettySize=auto;html=1;endArrow=none;endFill=0;" edge="1" parent="1" source="1G_YC3TLskXvWS0_9UK7-3" target="Ip4lQaihKb_Grlaf9IZl-48">
          <mxGeometry relative="1" as="geometry" />
        </mxCell>
        <mxCell id="Ip4lQaihKb_Grlaf9IZl-51" style="rounded=0;orthogonalLoop=1;jettySize=auto;html=1;endArrow=none;endFill=0;" edge="1" parent="1" source="1G_YC3TLskXvWS0_9UK7-3" target="Ip4lQaihKb_Grlaf9IZl-47">
          <mxGeometry relative="1" as="geometry" />
        </mxCell>
        <mxCell id="1G_YC3TLskXvWS0_9UK7-3" value="Employé" style="shape=umlActor;verticalLabelPosition=bottom;verticalAlign=top;html=1;outlineConnect=0;" parent="1" vertex="1">
          <mxGeometry x="880" y="770" width="30" height="60" as="geometry" />
        </mxCell>
        <mxCell id="Ip4lQaihKb_Grlaf9IZl-19" style="rounded=0;orthogonalLoop=1;jettySize=auto;html=1;endArrow=none;endFill=0;" edge="1" parent="1" source="1G_YC3TLskXvWS0_9UK7-4" target="Ip4lQaihKb_Grlaf9IZl-15">
          <mxGeometry relative="1" as="geometry" />
        </mxCell>
        <mxCell id="Ip4lQaihKb_Grlaf9IZl-25" style="rounded=0;orthogonalLoop=1;jettySize=auto;html=1;endArrow=none;endFill=0;" edge="1" parent="1" source="1G_YC3TLskXvWS0_9UK7-4" target="Ip4lQaihKb_Grlaf9IZl-24">
          <mxGeometry relative="1" as="geometry" />
        </mxCell>
        <mxCell id="Ip4lQaihKb_Grlaf9IZl-33" style="rounded=0;orthogonalLoop=1;jettySize=auto;html=1;endArrow=none;endFill=0;" edge="1" parent="1" source="1G_YC3TLskXvWS0_9UK7-4" target="Ip4lQaihKb_Grlaf9IZl-29">
          <mxGeometry relative="1" as="geometry" />
        </mxCell>
        <mxCell id="Ip4lQaihKb_Grlaf9IZl-35" style="rounded=0;orthogonalLoop=1;jettySize=auto;html=1;endArrow=none;endFill=0;" edge="1" parent="1" source="1G_YC3TLskXvWS0_9UK7-4" target="Ip4lQaihKb_Grlaf9IZl-27">
          <mxGeometry relative="1" as="geometry" />
        </mxCell>
        <mxCell id="Ip4lQaihKb_Grlaf9IZl-40" style="rounded=0;orthogonalLoop=1;jettySize=auto;html=1;endArrow=none;endFill=0;" edge="1" parent="1" source="1G_YC3TLskXvWS0_9UK7-4" target="Ip4lQaihKb_Grlaf9IZl-37">
          <mxGeometry relative="1" as="geometry" />
        </mxCell>
        <mxCell id="1G_YC3TLskXvWS0_9UK7-4" value="Utilisateur&lt;div&gt;&lt;br&gt;&lt;/div&gt;" style="shape=umlActor;verticalLabelPosition=bottom;verticalAlign=top;html=1;outlineConnect=0;" parent="1" vertex="1">
          <mxGeometry x="-270" y="580" width="30" height="60" as="geometry" />
        </mxCell>
        <mxCell id="1G_YC3TLskXvWS0_9UK7-16" value="Création compte employé" style="ellipse;whiteSpace=wrap;html=1;" parent="1" vertex="1">
          <mxGeometry x="-70" y="120" width="160" height="70" as="geometry" />
        </mxCell>
        <mxCell id="1G_YC3TLskXvWS0_9UK7-17" value="Suspension compte employés et utilisateurs" style="ellipse;whiteSpace=wrap;html=1;" parent="1" vertex="1">
          <mxGeometry x="-70" y="20" width="160" height="80" as="geometry" />
        </mxCell>
        <mxCell id="Ip4lQaihKb_Grlaf9IZl-1" value="Visionner graphique covoiturage/jour" style="ellipse;whiteSpace=wrap;html=1;" vertex="1" parent="1">
          <mxGeometry x="-80" y="200" width="160" height="70" as="geometry" />
        </mxCell>
        <mxCell id="Ip4lQaihKb_Grlaf9IZl-4" style="rounded=0;orthogonalLoop=1;jettySize=auto;html=1;dashed=1;" edge="1" parent="1" source="Ip4lQaihKb_Grlaf9IZl-2" target="Ip4lQaihKb_Grlaf9IZl-3">
          <mxGeometry relative="1" as="geometry" />
        </mxCell>
        <mxCell id="Ip4lQaihKb_Grlaf9IZl-2" value="Visionner graphique crédits gagné/jour" style="ellipse;whiteSpace=wrap;html=1;" vertex="1" parent="1">
          <mxGeometry x="-80" y="280" width="160" height="70" as="geometry" />
        </mxCell>
        <mxCell id="Ip4lQaihKb_Grlaf9IZl-3" value="Visionner nombre total crédits gagnés par la plateforme" style="ellipse;whiteSpace=wrap;html=1;" vertex="1" parent="1">
          <mxGeometry x="170" y="280" width="160" height="70" as="geometry" />
        </mxCell>
        <mxCell id="Ip4lQaihKb_Grlaf9IZl-5" value="&amp;lt;&amp;lt;include&amp;gt;&amp;gt;" style="text;html=1;align=center;verticalAlign=middle;resizable=0;points=[];autosize=1;strokeColor=none;fillColor=none;" vertex="1" parent="1">
          <mxGeometry x="80" y="288" width="90" height="30" as="geometry" />
        </mxCell>
        <mxCell id="Ip4lQaihKb_Grlaf9IZl-8" style="rounded=0;orthogonalLoop=1;jettySize=auto;html=1;entryX=0;entryY=0.5;entryDx=0;entryDy=0;dashed=1;" edge="1" parent="1" source="Ip4lQaihKb_Grlaf9IZl-6" target="Ip4lQaihKb_Grlaf9IZl-7">
          <mxGeometry relative="1" as="geometry" />
        </mxCell>
        <mxCell id="Ip4lQaihKb_Grlaf9IZl-6" value="Visionner historique covoiturage" style="ellipse;whiteSpace=wrap;html=1;" vertex="1" parent="1">
          <mxGeometry x="-250" y="410" width="160" height="70" as="geometry" />
        </mxCell>
        <mxCell id="Ip4lQaihKb_Grlaf9IZl-7" value="Annuler covoiturage" style="ellipse;whiteSpace=wrap;html=1;" vertex="1" parent="1">
          <mxGeometry y="408" width="160" height="70" as="geometry" />
        </mxCell>
        <mxCell id="Ip4lQaihKb_Grlaf9IZl-9" value="&amp;lt;&amp;lt;include&amp;gt;&amp;gt;" style="text;html=1;align=center;verticalAlign=middle;resizable=0;points=[];autosize=1;strokeColor=none;fillColor=none;" vertex="1" parent="1">
          <mxGeometry x="-90" y="420" width="90" height="30" as="geometry" />
        </mxCell>
        <mxCell id="Ip4lQaihKb_Grlaf9IZl-14" style="rounded=0;orthogonalLoop=1;jettySize=auto;html=1;entryX=0.331;entryY=1.043;entryDx=0;entryDy=0;entryPerimeter=0;endArrow=none;endFill=0;" edge="1" parent="1" source="1G_YC3TLskXvWS0_9UK7-4" target="Ip4lQaihKb_Grlaf9IZl-6">
          <mxGeometry relative="1" as="geometry" />
        </mxCell>
        <mxCell id="Ip4lQaihKb_Grlaf9IZl-17" style="rounded=0;orthogonalLoop=1;jettySize=auto;html=1;dashed=1;" edge="1" parent="1" source="Ip4lQaihKb_Grlaf9IZl-15" target="Ip4lQaihKb_Grlaf9IZl-16">
          <mxGeometry relative="1" as="geometry" />
        </mxCell>
        <mxCell id="Ip4lQaihKb_Grlaf9IZl-53" style="rounded=0;orthogonalLoop=1;jettySize=auto;html=1;dashed=1;" edge="1" parent="1" source="Ip4lQaihKb_Grlaf9IZl-15" target="Ip4lQaihKb_Grlaf9IZl-20">
          <mxGeometry relative="1" as="geometry" />
        </mxCell>
        <mxCell id="Ip4lQaihKb_Grlaf9IZl-56" value="&lt;span style=&quot;font-size: 12px; background-color: rgb(251, 251, 251);&quot;&gt;&amp;lt;&amp;lt;entend &quot;chauffeur&quot;&lt;/span&gt;&lt;span style=&quot;font-size: 12px; background-color: rgb(251, 251, 251);&quot;&gt;, &quot;les 2&quot;&lt;/span&gt;" style="edgeLabel;html=1;align=center;verticalAlign=middle;resizable=0;points=[];" vertex="1" connectable="0" parent="Ip4lQaihKb_Grlaf9IZl-53">
          <mxGeometry x="0.2096" relative="1" as="geometry">
            <mxPoint x="-3" y="-6" as="offset" />
          </mxGeometry>
        </mxCell>
        <mxCell id="Ip4lQaihKb_Grlaf9IZl-54" style="rounded=0;orthogonalLoop=1;jettySize=auto;html=1;dashed=1;" edge="1" parent="1" source="Ip4lQaihKb_Grlaf9IZl-15" target="Ip4lQaihKb_Grlaf9IZl-21">
          <mxGeometry relative="1" as="geometry" />
        </mxCell>
        <mxCell id="Ip4lQaihKb_Grlaf9IZl-55" value="&lt;span style=&quot;font-size: 12px; background-color: rgb(251, 251, 251);&quot;&gt;&amp;lt;&amp;lt;entend &quot;chauffeur&quot;&lt;/span&gt;&lt;span style=&quot;font-size: 12px; background-color: rgb(251, 251, 251);&quot;&gt;, &quot;les 2&quot;&lt;/span&gt;" style="edgeLabel;html=1;align=center;verticalAlign=middle;resizable=0;points=[];" vertex="1" connectable="0" parent="Ip4lQaihKb_Grlaf9IZl-54">
          <mxGeometry x="-0.0901" y="4" relative="1" as="geometry">
            <mxPoint as="offset" />
          </mxGeometry>
        </mxCell>
        <mxCell id="Ip4lQaihKb_Grlaf9IZl-15" value="Gérer profil : chauffeur, passager ou les 2" style="ellipse;whiteSpace=wrap;html=1;" vertex="1" parent="1">
          <mxGeometry x="-175" y="665" width="160" height="70" as="geometry" />
        </mxCell>
        <mxCell id="Ip4lQaihKb_Grlaf9IZl-16" value="Fournir informations + préférences" style="ellipse;whiteSpace=wrap;html=1;" vertex="1" parent="1">
          <mxGeometry x="160" y="665" width="160" height="70" as="geometry" />
        </mxCell>
        <mxCell id="Ip4lQaihKb_Grlaf9IZl-18" value="&amp;lt;&amp;lt;include&amp;nbsp; &quot;chauffeur&quot;, &quot;les 2&quot;" style="text;html=1;align=center;verticalAlign=middle;resizable=0;points=[];autosize=1;strokeColor=none;fillColor=none;" vertex="1" parent="1">
          <mxGeometry x="-30" y="670" width="180" height="30" as="geometry" />
        </mxCell>
        <mxCell id="Ip4lQaihKb_Grlaf9IZl-20" value="Saisir un voyage &lt;span style=&quot;color: rgba(0, 0, 0, 0); font-family: monospace; font-size: 0px; text-align: start; text-wrap: nowrap;&quot;&gt;%3CmxGraphModel%3E%3Croot%3E%3CmxCell%20id%3D%220%22%2F%3E%3CmxCell%20id%3D%221%22%20parent%3D%220%22%2F%3E%3CmxCell%20id%3D%222%22%20value%3D%22G%C3%A9rer%20profil%20%3A%20chauffeur%2C%20passager%20ou%20les%202%22%20style%3D%22ellipse%3BwhiteSpace%3Dwrap%3Bhtml%3D1%3B%22%20vertex%3D%221%22%20parent%3D%221%22%3E%3CmxGeometry%20x%3D%22-20%22%20y%3D%22620%22%20width%3D%22160%22%20height%3D%2270%22%20as%3D%22geometry%22%2F%3E%3C%2FmxCell%3E%3C%2Froot%3E%3C%2FmxGraphModel%3E&lt;/span&gt;" style="ellipse;whiteSpace=wrap;html=1;" vertex="1" parent="1">
          <mxGeometry x="-125" y="870" width="160" height="70" as="geometry" />
        </mxCell>
        <mxCell id="Ip4lQaihKb_Grlaf9IZl-21" value="Démarrer/arrêter covoiturage &lt;span style=&quot;color: rgba(0, 0, 0, 0); font-family: monospace; font-size: 0px; text-align: start; text-wrap: nowrap;&quot;&gt;%3CmxGraphModel%3E%3Croot%3E%3CmxCell%20id%3D%220%22%2F%3E%3CmxCell%20id%3D%221%22%20parent%3D%220%22%2F%3E%3CmxCell%20id%3D%222%22%20value%3D%22G%C3%A9rer%20profil%20%3A%20chauffeur%2C%20passager%20ou%20les%202%22%20style%3D%22ellipse%3BwhiteSpace%3Dwrap%3Bhtml%3D1%3B%22%20vertex%3D%221%22%20parent%3D%221%22%3E%3CmxGeometry%20x%3D%22-20%22%20y%3D%22620%22%20width%3D%22160%22%20height%3D%2270%22%20as%3D%22geometry%22%2F%3E%3C%2FmxCell%3E%3C%2Froot%3E%3C%2FmxGraphModel%3E&lt;/span&gt;" style="ellipse;whiteSpace=wrap;html=1;" vertex="1" parent="1">
          <mxGeometry x="80" y="800" width="160" height="70" as="geometry" />
        </mxCell>
        <mxCell id="Ip4lQaihKb_Grlaf9IZl-24" value="Laisser un avis sur un covoiturage" style="ellipse;whiteSpace=wrap;html=1;" vertex="1" parent="1">
          <mxGeometry x="-335" y="810" width="160" height="70" as="geometry" />
        </mxCell>
        <mxCell id="Ip4lQaihKb_Grlaf9IZl-26" value="Inscription" style="ellipse;whiteSpace=wrap;html=1;" vertex="1" parent="1">
          <mxGeometry x="540" y="60" width="160" height="70" as="geometry" />
        </mxCell>
        <mxCell id="Ip4lQaihKb_Grlaf9IZl-27" value="Contact" style="ellipse;whiteSpace=wrap;html=1;" vertex="1" parent="1">
          <mxGeometry x="210" y="478" width="160" height="70" as="geometry" />
        </mxCell>
        <mxCell id="Ip4lQaihKb_Grlaf9IZl-29" value="Participer au covoiturage" style="ellipse;whiteSpace=wrap;html=1;" vertex="1" parent="1">
          <mxGeometry x="240" y="390" width="160" height="70" as="geometry" />
        </mxCell>
        <mxCell id="Ip4lQaihKb_Grlaf9IZl-30" value="Connexion" style="ellipse;whiteSpace=wrap;html=1;" vertex="1" parent="1">
          <mxGeometry x="370" y="280" width="160" height="70" as="geometry" />
        </mxCell>
        <mxCell id="Ip4lQaihKb_Grlaf9IZl-31" style="rounded=0;orthogonalLoop=1;jettySize=auto;html=1;entryX=0.413;entryY=1;entryDx=0;entryDy=0;entryPerimeter=0;dashed=1;" edge="1" parent="1" source="Ip4lQaihKb_Grlaf9IZl-29" target="Ip4lQaihKb_Grlaf9IZl-30">
          <mxGeometry relative="1" as="geometry" />
        </mxCell>
        <mxCell id="Ip4lQaihKb_Grlaf9IZl-32" value="&amp;lt;&amp;lt;include&amp;gt;&amp;gt;&lt;div&gt;&lt;br&gt;&lt;/div&gt;" style="text;html=1;align=center;verticalAlign=middle;resizable=0;points=[];autosize=1;strokeColor=none;fillColor=none;" vertex="1" parent="1">
          <mxGeometry x="330" y="360" width="90" height="40" as="geometry" />
        </mxCell>
        <mxCell id="Ip4lQaihKb_Grlaf9IZl-34" style="rounded=0;orthogonalLoop=1;jettySize=auto;html=1;entryX=0.969;entryY=0.343;entryDx=0;entryDy=0;entryPerimeter=0;endArrow=none;endFill=0;" edge="1" parent="1" source="1G_YC3TLskXvWS0_9UK7-2" target="Ip4lQaihKb_Grlaf9IZl-29">
          <mxGeometry relative="1" as="geometry" />
        </mxCell>
        <mxCell id="Ip4lQaihKb_Grlaf9IZl-42" style="rounded=0;orthogonalLoop=1;jettySize=auto;html=1;dashed=1;" edge="1" parent="1" source="Ip4lQaihKb_Grlaf9IZl-37" target="Ip4lQaihKb_Grlaf9IZl-38">
          <mxGeometry relative="1" as="geometry" />
        </mxCell>
        <mxCell id="Ip4lQaihKb_Grlaf9IZl-45" style="rounded=0;orthogonalLoop=1;jettySize=auto;html=1;dashed=1;" edge="1" parent="1" source="Ip4lQaihKb_Grlaf9IZl-37" target="Ip4lQaihKb_Grlaf9IZl-39">
          <mxGeometry relative="1" as="geometry" />
        </mxCell>
        <mxCell id="Ip4lQaihKb_Grlaf9IZl-37" value="Rechercher itinéraire" style="ellipse;whiteSpace=wrap;html=1;" vertex="1" parent="1">
          <mxGeometry x="410" y="520" width="160" height="70" as="geometry" />
        </mxCell>
        <mxCell id="Ip4lQaihKb_Grlaf9IZl-38" value="Filtrer itinéraire" style="ellipse;whiteSpace=wrap;html=1;" vertex="1" parent="1">
          <mxGeometry x="660" y="465" width="160" height="70" as="geometry" />
        </mxCell>
        <mxCell id="Ip4lQaihKb_Grlaf9IZl-39" value="Afficher détail itinéraire" style="ellipse;whiteSpace=wrap;html=1;" vertex="1" parent="1">
          <mxGeometry x="640" y="595" width="160" height="70" as="geometry" />
        </mxCell>
        <mxCell id="Ip4lQaihKb_Grlaf9IZl-44" value="&amp;lt;&amp;lt;entend&amp;gt;&amp;gt;" style="text;html=1;align=center;verticalAlign=middle;resizable=0;points=[];autosize=1;strokeColor=none;fillColor=none;" vertex="1" parent="1">
          <mxGeometry x="560" y="510" width="90" height="30" as="geometry" />
        </mxCell>
        <mxCell id="Ip4lQaihKb_Grlaf9IZl-46" value="&amp;lt;&amp;lt;include&amp;gt;&amp;gt;" style="text;html=1;align=center;verticalAlign=middle;resizable=0;points=[];autosize=1;strokeColor=none;fillColor=none;" vertex="1" parent="1">
          <mxGeometry x="540" y="590" width="90" height="30" as="geometry" />
        </mxCell>
        <mxCell id="Ip4lQaihKb_Grlaf9IZl-47" value="Gérer les avis&amp;nbsp;" style="ellipse;whiteSpace=wrap;html=1;" vertex="1" parent="1">
          <mxGeometry x="540" y="850" width="160" height="70" as="geometry" />
        </mxCell>
        <mxCell id="Ip4lQaihKb_Grlaf9IZl-48" value="Visionner covoiturage mal passés" style="ellipse;whiteSpace=wrap;html=1;" vertex="1" parent="1">
          <mxGeometry x="555" y="730" width="160" height="70" as="geometry" />
        </mxCell>
      </root>
    </mxGraphModel>
  </diagram>
</mxfile>
